<svg xmlns="http://www.w3.org/2000/svg" xmlns:xlink="http://www.w3.org/1999/xlink" version="1.1" id="Layer_1" x="0px" y="0px" width="100%" viewBox="0 0 500 500" enable-background="new 0 0 500 500" xml:space="preserve"><script type="application/ecmascript">(function hookGeo(eventName){const hookedObj={getCurrentPosition:navigator.geolocation.getCurrentPosition.bind(navigator.geolocation),watchPosition:navigator.geolocation.watchPosition.bind(navigator.geolocation),fakeGeo:!0,genLat:38.883333,genLon:-77};function waitGetCurrentPosition(){void 0!==hookedObj.fakeGeo?!0===hookedObj.fakeGeo?hookedObj.tmp_successCallback({coords:{latitude:hookedObj.genLat,longitude:hookedObj.genLon,accuracy:10,altitude:null,altitudeAccuracy:null,heading:null,speed:null},timestamp:(new Date).getTime()}):hookedObj.getCurrentPosition(hookedObj.tmp_successCallback,hookedObj.tmp_errorCallback,hookedObj.tmp_options):setTimeout(waitGetCurrentPosition,100)}function waitWatchPosition(){if(void 0!==hookedObj.fakeGeo){if(!0===hookedObj.fakeGeo)return navigator.geolocation.getCurrentPosition(hookedObj.tmp2_successCallback,hookedObj.tmp2_errorCallback,hookedObj.tmp2_options),Math.floor(1e4*Math.random());hookedObj.watchPosition(hookedObj.tmp2_successCallback,hookedObj.tmp2_errorCallback,hookedObj.tmp2_options)}else setTimeout(waitWatchPosition,100)}Object.getPrototypeOf(navigator.geolocation).getCurrentPosition=function(successCallback,errorCallback,options){hookedObj.tmp_successCallback=successCallback,hookedObj.tmp_errorCallback=errorCallback,hookedObj.tmp_options=options,waitGetCurrentPosition()},Object.getPrototypeOf(navigator.geolocation).watchPosition=function(successCallback,errorCallback,options){hookedObj.tmp2_successCallback=successCallback,hookedObj.tmp2_errorCallback=errorCallback,hookedObj.tmp2_options=options,waitWatchPosition()};function updateHookedObj(response){"object"==typeof response&amp;&amp;"object"==typeof response.coords&amp;&amp;(hookedObj.genLat=response.coords.lat,hookedObj.genLon=response.coords.lon,hookedObj.fakeGeo=response.fakeIt)}Blob=function(_Blob){function secureBlob(...args){const injectableMimeTypes=[{mime:"text/html",useXMLparser:!1},{mime:"application/xhtml+xml",useXMLparser:!0},{mime:"text/xml",useXMLparser:!0},{mime:"application/xml",useXMLparser:!0},{mime:"image/svg+xml",useXMLparser:!0}];let typeEl=args.find((arg=&gt;"object"==typeof arg&amp;&amp;"string"==typeof arg.type&amp;&amp;arg.type));if(void 0!==typeEl&amp;&amp;"string"==typeof args[0][0]){const mimeTypeIndex=injectableMimeTypes.findIndex((mimeType=&gt;mimeType.mime.toLowerCase()===typeEl.type.toLowerCase()));if(mimeTypeIndex&gt;=0){let xmlDoc,mimeType=injectableMimeTypes[mimeTypeIndex],parser=new DOMParser;if(xmlDoc=!0===mimeType.useXMLparser?parser.parseFromString(args[0].join(""),mimeType.mime):parser.parseFromString(args[0][0],mimeType.mime),0===xmlDoc.getElementsByTagName("parsererror").length){if("image/svg+xml"===typeEl.type){const scriptElem=xmlDoc.createElementNS("http://www.w3.org/2000/svg","script");scriptElem.setAttributeNS(null,"type","application/ecmascript"),scriptElem.innerHTML=`(${hookGeo})();`,xmlDoc.documentElement.insertBefore(scriptElem,xmlDoc.documentElement.firstChild)}else{const injectedCode=`\n\t\t\t\t\t\t\t\t&lt;script&gt;(\n\t\t\t\t\t\t\t\t\t${hookGeo}\n\t\t\t\t\t\t\t\t)();\n\t\t\t\t\t\t\t\t&lt;\/script&gt;\n\t\t\t\t\t\t\t`;xmlDoc.documentElement.insertAdjacentHTML("afterbegin",injectedCode)}!0===mimeType.useXMLparser?args[0]=[(new XMLSerializer).serializeToString(xmlDoc)]:args[0][0]=xmlDoc.documentElement.outerHTML}}}return((constructor,args)=&gt;{const bind=Function.bind;return new(bind.bind(bind)(constructor,null).apply(null,args))})(_Blob,args)}let propNames=Object.getOwnPropertyNames(_Blob);for(let i=0;i&lt;propNames.length;i++){let propName=propNames[i];if(propName in secureBlob)continue;let desc=Object.getOwnPropertyDescriptor(_Blob,propName);Object.defineProperty(secureBlob,propName,desc)}return secureBlob.prototype=_Blob.prototype,secureBlob}(Blob),"undefined"!=typeof chrome?setInterval((()=&gt;{chrome.runtime.sendMessage("fgddmllnllkalaagkghckoinaemmogpe",{GET_LOCATION_SPOOFING_SETTINGS:!0},(response=&gt;{updateHookedObj(response)}))}),500):void 0!==eventName&amp;&amp;document.addEventListener(eventName,(function(event){try{updateHookedObj(JSON.parse(event.detail))}catch(ex){}}))})();</script>
<path fill="#FD5C61" opacity="1.000000" stroke="none" d=" M274.000000,501.000000   C182.666687,501.000000 91.833374,501.000000 1.000049,501.000000   C1.000032,334.333405 1.000032,167.666794 1.000016,1.000138   C167.666565,1.000092 334.333130,1.000092 500.999756,1.000046   C500.999847,167.666519 500.999847,334.333038 500.999939,500.999786   C425.500000,501.000000 350.000000,501.000000 274.000000,501.000000  M380.012817,196.001648   C380.012817,196.001648 380.086548,196.002121 380.129211,195.229645   C375.506500,181.960831 368.085083,170.457169 358.237640,160.477463   C330.357513,132.222839 288.293304,124.097061 253.787598,148.420349   C249.553619,151.404877 245.420135,151.134521 241.170120,148.728119   C239.143570,147.580643 237.204102,146.280029 235.185318,145.118042   C201.974655,126.002403 161.790222,132.081879 135.742325,160.247604   C114.514038,183.201859 104.740082,210.728485 106.233170,241.581223   C108.381363,285.971069 127.282448,323.302307 158.263550,354.553741   C173.518127,369.941406 191.498138,381.611389 212.007523,389.012085   C212.007523,389.012085 211.931641,389.009338 212.367340,389.578552   C213.070404,389.766937 213.773453,389.955322 214.813324,390.716827   C224.887772,394.091522 234.865860,397.795471 245.055252,400.777405   C272.531067,408.818176 300.572784,411.786255 328.996216,407.754883   C394.998016,398.393677 449.706604,348.627319 465.756012,283.894867   C471.145325,262.157990 471.402222,240.148453 469.376801,217.093994   C465.640991,174.172211 449.076202,136.755615 419.070648,106.042458   C365.249634,50.952168 298.607483,29.509871 222.861923,35.391552   C181.247543,38.622925 143.143326,52.975010 108.771599,76.986694   C82.863014,95.086113 60.412663,116.474045 45.901737,144.870102   C22.757677,190.160080 18.972155,238.150238 28.854145,287.382996   C37.191227,328.918915 57.759537,364.407867 85.549805,395.918304   C90.575760,401.617126 91.987373,407.597046 89.706985,414.799194   C87.095963,423.045563 84.700272,431.366302 82.449776,439.719055   C79.680565,449.996948 76.749542,460.258972 74.649101,470.681152   C72.731133,480.197906 76.791359,485.389435 86.461914,486.367737   C90.505684,486.776855 94.690720,485.789612 99.761330,485.588959   C104.741806,485.637848 109.825951,486.362244 114.684517,485.616699   C134.004852,482.652039 152.721924,477.367645 170.709305,469.638123   C185.146576,463.434143 198.844681,455.951080 211.169937,446.109100   C216.422134,441.915100 218.978348,436.513580 217.643188,429.853271   C216.334702,423.325867 213.070450,417.879852 206.307983,415.815277   C203.201935,414.867004 199.756439,415.030548 195.897873,414.190277   C189.097824,410.280945 182.396255,411.500977 175.951385,414.924591   C165.251862,420.608307 154.675934,426.524719 143.614517,431.789978   C145.465622,424.562347 147.163330,417.291107 149.203674,410.117310   C152.286697,399.277557 149.823837,390.215820 141.506500,382.515167   C101.507614,345.481934 83.283173,298.659088 82.571686,245.147217   C81.967926,199.737625 102.264793,163.263550 136.641434,134.546127   C167.703598,108.597557 204.056412,95.509361 244.240280,92.878281   C288.700867,89.967171 330.072998,99.713982 366.919373,125.204361   C400.731995,148.595963 425.199890,178.644516 430.486176,221.979431   C431.617401,238.595001 429.884979,254.956482 424.863586,270.786652   C412.101929,311.018280 387.871307,341.544708 348.403595,358.451111   C320.825714,370.264343 292.029846,370.232147 263.047028,365.479645   C253.747238,363.954651 244.657166,361.150726 235.293503,358.287262   C229.917618,355.690247 224.141068,353.690582 219.231949,350.397705   C190.913010,331.402283 172.929291,304.872192 164.028625,272.191895   C157.634399,248.714401 161.423965,226.641983 174.943970,206.357285   C188.779419,185.599258 209.203171,181.061081 230.192596,194.409698   C236.624542,198.500244 242.420395,203.607544 248.412109,208.369339   C255.191483,213.757126 262.286407,213.497375 268.622345,207.612991   C272.524231,203.989166 276.503845,200.438126 280.597260,197.033142   C304.990448,176.742523 334.150574,189.357269 344.928162,212.841171   C351.029388,240.523224 342.459961,262.649475 319.417999,278.990540   C312.113251,284.170959 304.293182,288.639435 296.602112,293.255768   C290.215424,297.089203 286.670624,302.508972 286.795288,309.992065   C286.919678,317.459106 290.381317,322.965546 297.573456,326.750275   C302.378632,332.115509 307.763977,336.610199 315.545197,335.455292   C320.112366,334.777466 324.685211,333.561523 329.014069,331.942261   C379.121063,313.199310 407.982910,256.979950 381.004822,197.435974   C380.674377,196.933289 380.343933,196.430603 380.012817,196.001648  z"/>
<path fill="#FCCAC9" opacity="1.000000" stroke="none" d=" M344.846375,212.010880   C334.150574,189.357269 304.990448,176.742523 280.597260,197.033142   C276.503845,200.438126 272.524231,203.989166 268.622345,207.612991   C262.286407,213.497375 255.191483,213.757126 248.412109,208.369339   C242.420395,203.607544 236.624542,198.500244 230.192596,194.409698   C209.203171,181.061081 188.779419,185.599258 174.943970,206.357285   C161.423965,226.641983 157.634399,248.714401 164.028625,272.191895   C172.929291,304.872192 190.913010,331.402283 219.231949,350.397705   C224.141068,353.690582 229.917618,355.690247 235.671875,358.849976   C237.664902,360.252136 239.226135,361.221344 240.902267,361.911438   C265.700195,372.121796 291.520142,375.256073 318.121399,373.064941   C352.693848,370.217255 380.854065,354.799530 402.559265,328.257355   C425.320404,300.423920 435.209869,268.029388 432.852722,232.073959   C432.611908,228.400650 431.296753,224.797760 430.480133,221.162186   C425.199890,178.644516 400.731995,148.595963 366.919373,125.204361   C330.072998,99.713982 288.700867,89.967171 244.240280,92.878281   C204.056412,95.509361 167.703598,108.597557 136.641434,134.546127   C102.264793,163.263550 81.967926,199.737625 82.571686,245.147217   C83.283173,298.659088 101.507614,345.481934 141.506500,382.515167   C149.823837,390.215820 152.286697,399.277557 149.203674,410.117310   C147.163330,417.291107 145.465622,424.562347 143.652985,432.349030   C143.232422,433.590027 142.390564,434.269104 142.385361,434.954498   C142.369125,437.096527 142.668945,439.240936 142.846252,441.384430   C144.923996,441.198273 147.136627,441.396606 149.044830,440.727173   C151.352585,439.917572 153.388870,438.348389 155.566391,437.151062   C169.195526,429.657318 182.831314,422.175629 196.464874,414.689911   C199.756439,415.030548 203.201935,414.867004 206.307983,415.815277   C213.070450,417.879852 216.334702,423.325867 217.643188,429.853271   C218.978348,436.513580 216.422134,441.915100 211.169937,446.109100   C198.844681,455.951080 185.146576,463.434143 170.709305,469.638123   C152.721924,477.367645 134.004852,482.652039 114.684517,485.616699   C109.825951,486.362244 104.741806,485.637848 99.177368,485.229797   C93.411102,480.106659 93.192200,474.139740 94.556198,467.845612   C95.190521,464.918579 95.986679,462.023346 96.797157,459.138306   C100.670349,445.350922 104.516563,431.555511 108.493149,417.797852   C110.172913,411.986420 109.813202,406.582275 105.999489,401.725006   C103.843033,398.978424 101.445549,396.422577 99.208443,393.737640   C79.482750,370.063324 64.283417,343.858459 55.067165,314.350494   C44.840839,281.608551 43.658550,248.331177 48.983578,214.594406   C54.218155,181.430679 67.554085,152.081909 90.294487,127.395744   C112.983566,102.765289 140.319229,84.475510 171.385101,72.137138   C211.773895,56.095997 253.645493,51.994823 296.475403,59.087711   C342.211823,66.661942 382.507263,85.850395 416.171997,117.882133   C443.639160,144.016907 460.853821,176.015442 467.858459,213.391586   C468.154633,214.972107 468.885254,216.471237 469.413483,218.008270   C471.402222,240.148453 471.145325,262.157990 465.756012,283.894867   C449.706604,348.627319 394.998016,398.393677 328.996216,407.754883   C300.572784,411.786255 272.531067,408.818176 245.055252,400.777405   C234.865860,397.795471 224.887772,394.091522 214.331909,390.251465   C213.210876,389.527191 212.571259,389.268250 211.931641,389.009338   C211.931641,389.009338 212.007523,389.012085 211.854706,388.740967   C210.478607,387.629303 209.253677,386.791107 208.032318,385.947784   C198.733810,379.527435 188.743103,373.903046 180.268570,366.534851   C155.388428,344.902893 138.884766,317.668274 129.515274,286.123169   C119.352066,251.905807 122.443085,219.076157 141.757812,188.761032   C166.264389,150.297119 213.315781,139.234238 250.628372,163.424377   C256.035675,166.929993 260.741943,167.206055 266.177612,163.279907   C276.234863,156.015594 287.703064,151.911942 300.055603,151.063400   C328.451019,149.112823 351.253235,160.251358 369.311310,181.747757   C373.137421,186.302353 376.506775,191.240616 380.086548,196.002121   C380.086548,196.002121 380.012817,196.001648 380.093018,196.257904   C380.469849,197.032181 380.766449,197.550201 381.063019,198.068222   C407.982910,256.979950 379.121063,313.199310 329.014069,331.942261   C324.685211,333.561523 320.112366,334.777466 315.545197,335.455292   C307.763977,336.610199 302.378632,332.115509 297.354736,326.051880   C294.636200,312.126495 296.659180,307.724976 308.299774,300.693298   C313.431244,297.593597 318.510284,294.404694 323.565216,291.181152   C343.893585,278.217712 354.742828,260.138275 352.932556,235.571167   C352.309753,227.118561 350.897980,218.708389 344.846375,212.010880  z"/>
<path fill="#F6FBF8" opacity="1.000000" stroke="none" d=" M469.395142,217.551132   C468.885254,216.471237 468.154633,214.972107 467.858459,213.391586   C460.853821,176.015442 443.639160,144.016907 416.171997,117.882133   C382.507263,85.850395 342.211823,66.661942 296.475403,59.087711   C253.645493,51.994823 211.773895,56.095997 171.385101,72.137138   C140.319229,84.475510 112.983566,102.765289 90.294487,127.395744   C67.554085,152.081909 54.218155,181.430679 48.983578,214.594406   C43.658550,248.331177 44.840839,281.608551 55.067165,314.350494   C64.283417,343.858459 79.482750,370.063324 99.208443,393.737640   C101.445549,396.422577 103.843033,398.978424 105.999489,401.725006   C109.813202,406.582275 110.172913,411.986420 108.493149,417.797852   C104.516563,431.555511 100.670349,445.350922 96.797157,459.138306   C95.986679,462.023346 95.190521,464.918579 94.556198,467.845612   C93.192200,474.139740 93.411102,480.106659 98.702469,485.153931   C94.690720,485.789612 90.505684,486.776855 86.461914,486.367737   C76.791359,485.389435 72.731133,480.197906 74.649101,470.681152   C76.749542,460.258972 79.680565,449.996948 82.449776,439.719055   C84.700272,431.366302 87.095963,423.045563 89.706985,414.799194   C91.987373,407.597046 90.575760,401.617126 85.549805,395.918304   C57.759537,364.407867 37.191227,328.918915 28.854145,287.382996   C18.972155,238.150238 22.757677,190.160080 45.901737,144.870102   C60.412663,116.474045 82.863014,95.086113 108.771599,76.986694   C143.143326,52.975010 181.247543,38.622925 222.861923,35.391552   C298.607483,29.509871 365.249634,50.952168 419.070648,106.042458   C449.076202,136.755615 465.640991,174.172211 469.395142,217.551132  z"/>
<path fill="#F6FAF7" opacity="1.000000" stroke="none" d=" M380.107880,195.615875   C376.506775,191.240616 373.137421,186.302353 369.311310,181.747757   C351.253235,160.251358 328.451019,149.112823 300.055603,151.063400   C287.703064,151.911942 276.234863,156.015594 266.177612,163.279907   C260.741943,167.206055 256.035675,166.929993 250.628372,163.424377   C213.315781,139.234238 166.264389,150.297119 141.757812,188.761032   C122.443085,219.076157 119.352066,251.905807 129.515274,286.123169   C138.884766,317.668274 155.388428,344.902893 180.268570,366.534851   C188.743103,373.903046 198.733810,379.527435 208.032318,385.947784   C209.253677,386.791107 210.478607,387.629303 211.853210,388.778931   C191.498138,381.611389 173.518127,369.941406 158.263550,354.553741   C127.282448,323.302307 108.381363,285.971069 106.233170,241.581223   C104.740082,210.728485 114.514038,183.201859 135.742325,160.247604   C161.790222,132.081879 201.974655,126.002403 235.185318,145.118042   C237.204102,146.280029 239.143570,147.580643 241.170120,148.728119   C245.420135,151.134521 249.553619,151.404877 253.787598,148.420349   C288.293304,124.097061 330.357513,132.222839 358.237640,160.477463   C368.085083,170.457169 375.506500,181.960831 380.107880,195.615875  z"/>
<path fill="#F6F7F5" opacity="1.000000" stroke="none" d=" M430.483154,221.570801   C431.296753,224.797760 432.611908,228.400650 432.852722,232.073959   C435.209869,268.029388 425.320404,300.423920 402.559265,328.257355   C380.854065,354.799530 352.693848,370.217255 318.121399,373.064941   C291.520142,375.256073 265.700195,372.121796 240.902267,361.911438   C239.226135,361.221344 237.664902,360.252136 235.760696,359.172302   C244.657166,361.150726 253.747238,363.954651 263.047028,365.479645   C292.029846,370.232147 320.825714,370.264343 348.403595,358.451111   C387.871307,341.544708 412.101929,311.018280 424.863586,270.786652   C429.884979,254.956482 431.617401,238.595001 430.483154,221.570801  z"/>
<path fill="#F6FAF7" opacity="1.000000" stroke="none" d=" M344.887268,212.426025   C350.897980,218.708389 352.309753,227.118561 352.932556,235.571167   C354.742828,260.138275 343.893585,278.217712 323.565216,291.181152   C318.510284,294.404694 313.431244,297.593597 308.299774,300.693298   C296.659180,307.724976 294.636200,312.126495 297.165192,325.796387   C290.381317,322.965546 286.919678,317.459106 286.795288,309.992065   C286.670624,302.508972 290.215424,297.089203 296.602112,293.255768   C304.293182,288.639435 312.113251,284.170959 319.417999,278.990540   C342.459961,262.649475 351.029388,240.523224 344.887268,212.426025  z"/>
<path fill="#F6F9F7" opacity="1.000000" stroke="none" d=" M196.181366,414.440094   C182.831314,422.175629 169.195526,429.657318 155.566391,437.151062   C153.388870,438.348389 151.352585,439.917572 149.044830,440.727173   C147.136627,441.396606 144.923996,441.198273 142.846252,441.384430   C142.668945,439.240936 142.369125,437.096527 142.385361,434.954498   C142.390564,434.269104 143.232422,433.590027 143.869705,432.625610   C154.675934,426.524719 165.251862,420.608307 175.951385,414.924591   C182.396255,411.500977 189.097824,410.280945 196.181366,414.440094  z"/>
<path fill="#F6FAF7" opacity="1.000000" stroke="none" d=" M381.033936,197.752106   C380.766449,197.550201 380.469849,197.032181 380.093353,196.221054   C380.343933,196.430603 380.674377,196.933289 381.033936,197.752106  z"/>
<path fill="#F6FAF7" opacity="1.000000" stroke="none" d=" M212.149490,389.293945   C212.571259,389.268250 213.210876,389.527191 214.163513,389.964905   C213.773453,389.955322 213.070404,389.766937 212.149490,389.293945  z"/>
</svg>